<svg width="390" height="390" viewBox="0 0 390 390" fill="none" xmlns="http://www.w3.org/2000/svg">
<circle cx="195" cy="195" r="195" fill="white"/>
<path d="M231 250.169C231 249.012 229.988 248 228.831 248H161.169C160.012 248 159 249.012 159 250.169C159 269.976 175.048 286.169 195 286.169C214.952 286.169 231 269.976 231 250.169ZM163.337 252.337H226.663C225.506 268.819 211.771 281.831 195 281.831C178.229 281.831 164.494 268.819 163.337 252.337Z" fill="#252525"/>
<circle cx="161.227" cy="199.227" r="8.2268" fill="#252525"/>
<path d="M232.658 171C221.417 171 211.6 177.65 207.008 187.15C203.05 186.2 198.775 185.567 194.5 185.567C190.067 185.567 185.95 186.042 181.992 187.15C177.4 177.65 167.583 171 156.342 171C140.667 171 128 183.667 128 199.342C128 212.958 137.658 224.358 150.483 227.208C152.067 227.525 153.65 227.683 155.392 227.842C155.708 227.842 156.025 227.842 156.342 227.842C172.017 227.842 184.683 215.175 184.683 199.5C184.683 196.808 184.208 194.117 183.575 191.742C187.058 190.95 190.7 190.475 194.342 190.475C198.142 190.475 201.783 190.95 205.108 191.742C204.317 194.275 204 196.808 204 199.5C204 215.175 216.667 227.842 232.342 227.842C232.658 227.842 232.975 227.842 233.292 227.842C235.033 227.842 236.617 227.683 238.2 227.208C251.342 224.517 261 213.117 261 199.342C261 183.667 248.333 171 232.658 171ZM180.092 199.342C180.092 212.325 169.483 222.933 156.5 222.933C156.025 222.933 155.55 222.933 155.075 222.933C153.492 222.775 151.908 222.617 150.325 222.142C140.192 219.608 132.75 210.267 132.75 199.342C132.75 186.358 143.358 175.75 156.342 175.75C165.525 175.75 173.283 180.975 177.242 188.417C178.033 189.842 178.508 191.267 178.983 192.85C179.775 194.908 180.092 197.125 180.092 199.342ZM238.675 222.3C237.092 222.775 235.508 222.933 233.925 223.092C233.45 223.092 232.975 223.092 232.5 223.092C219.517 223.092 208.908 212.483 208.908 199.5C208.908 197.283 209.225 195.067 209.858 193.008C210.333 191.425 210.967 190 211.6 188.575C215.558 180.975 223.475 175.908 232.5 175.908C245.642 175.75 256.25 186.358 256.25 199.342C256.25 210.267 248.808 219.608 238.675 222.3Z" fill="#252525"/>
<circle cx="224.774" cy="199.227" r="8.2268" fill="#252525"/>
<path d="M299.614 189.398C295.88 184.698 290.474 183.052 286.061 183.14C284.158 183.154 282.421 183.449 280.766 183.81L280.772 183.785C280.772 167.767 284.627 153.029 284.627 139.43C284.627 125.864 276.555 102.479 251.687 100.014C251.687 100.014 235.363 53.6945 139.145 66.1162C139.145 66.1162 148.455 71.9409 150.783 74.252C153.108 76.5907 153.108 76.5907 153.108 76.5907C153.108 76.5907 129.439 75.4214 115.473 85.5126C115.473 85.5126 125.178 88.2374 127.114 93.6539C127.114 93.6539 99.7642 95.4052 89.0911 106.076C89.0911 106.076 102.668 107.62 102.668 142.93C102.668 153.652 105.832 170.429 110.87 183.046C110.835 183.496 110.774 183.92 110.749 184.345C108.54 183.689 105.956 183.159 103.143 183.134C98.7273 183.046 93.319 184.693 89.6013 189.392C85.8699 194.07 84 200.763 84 210.408C84 242.863 106.67 252.915 114.955 255.491C129.45 296.562 158.999 325.837 194.628 326C230.197 325.835 259.751 296.559 274.244 255.491C282.537 252.915 305.196 242.863 305.196 210.408C305.204 200.766 303.337 193.995 299.614 189.398ZM269.594 246.509L266.673 247L265.747 249.815C252.249 289.971 224.775 316.179 194.637 316.052C164.498 316.182 136.963 289.971 123.546 249.815L122.547 247L119.627 246.509C119.687 246.2 93.9533 242.799 93.9533 210.41C94.7035 193.518 99.232 193.08 103.151 193.08C113.943 193.08 120.195 199.343 120.195 199.343L120.305 191.816C120.653 182.277 121.714 173.06 123.273 164.201C132.658 137.861 144.208 134.204 149.043 134.204C153.888 134.204 170.568 137.102 182.204 137.102C210.914 137.102 218.291 129.733 236.521 129.733C253.846 129.733 266.039 168.305 267.211 172.144C268.074 178.532 268.72 185.082 268.962 191.816L269.274 199.343C269.274 199.343 278.116 193.077 286.061 193.077C289.989 193.077 294.512 193.438 295.267 210.408C295.265 242.799 269.594 246.197 269.594 246.509Z" fill="#252525"/>
<path d="M251.71 159.868C255.106 161.245 256.236 165.608 253.359 168.4C253.359 168.4 253.359 168.4 253.359 168.4C251.724 169.979 249.194 170.507 247.157 169.604C243.581 168.051 237.875 166.508 231.244 166.5C224.613 166.508 218.906 168.051 215.33 169.604C213.294 170.506 210.764 169.98 209.129 168.4C206.252 165.605 207.381 161.244 210.778 159.868C216.394 157.59 223.511 156.015 231.244 156C238.977 156.015 246.095 157.589 251.71 159.868ZM157.756 156C150.024 156.015 142.906 157.59 137.29 159.868C133.894 161.244 132.764 165.605 135.641 168.4C137.276 169.98 139.806 170.506 141.843 169.604C145.419 168.051 151.126 166.508 157.756 166.5C164.387 166.508 170.093 168.051 173.669 169.604C175.706 170.507 178.236 169.979 179.871 168.4C179.871 168.4 179.871 168.4 179.871 168.4C182.748 165.608 181.619 161.245 178.222 159.868C172.607 157.589 165.489 156.015 157.756 156Z" fill="#252525"/>
</svg>
