<svg width="198" height="148" viewBox="0 0 198 148" fill="none" xmlns="http://www.w3.org/2000/svg">
<path d="M117.273 39.6252L148.636 71.2756C149.815 72.4657 149.824 74.3812 148.655 75.5815L116.352 108.75M117.273 39.6252L94.7564 17.4209C82.7349 5.56633 63.3999 5.63394 51.4615 17.5723L16.7237 52.3101C4.72603 64.3078 4.72603 83.7598 16.7237 95.7575L51.4627 130.497C63.5206 142.554 83.0916 142.485 95.0636 130.342L116.352 108.75M117.273 39.6252L129.783 26.9348C134.571 22.0767 142.4 22.0485 147.224 26.872L186.311 65.9588C191.11 70.7578 191.11 78.5387 186.311 83.3377L147.221 122.427C142.399 127.25 134.572 127.223 129.783 122.367L116.352 108.75M117.273 39.6252L103.782 52.9291C98.9973 57.6475 91.3099 57.6475 86.5251 52.9291L81.7229 48.1936C76.9142 43.4517 69.1802 43.4788 64.4049 48.2541L47.0075 65.6515C42.2084 70.4506 42.2084 78.2314 47.0075 83.0305L64.4057 100.429C69.1807 105.204 76.9141 105.231 81.7228 100.49L86.2196 96.0567C91.0039 91.3399 98.6893 91.3395 103.474 96.0558L116.352 108.75" stroke="url(#paint0_linear_28_33)" stroke-width="15.361"/>
<defs>
<linearGradient id="paint0_linear_28_33" x1="81.9432" y1="-54.6912" x2="202.988" y2="169.886" gradientUnits="userSpaceOnUse">
<stop offset="0.0980739" stop-color="#1559BF"/>
<stop offset="0.81595" stop-color="#C011EC" stop-opacity="0.8"/>
</linearGradient>
</defs>
</svg>
